<svg enable-background="new 0 0 3872.98 3872.98" viewBox="0 0 3872.98 3872.98" xmlns="http://www.w3.org/2000/svg" width="300" height="300" version="1.1" xmlns:xlink="http://www.w3.org/1999/xlink" xmlns:svgjs="http://svgjs.dev/svgjs"><g width="100%" height="100%" transform="matrix(1,0,0,1,0,0)"><g id="Layer_1"><g><g><path clip-rule="evenodd" d="m3512.84 3244.92h-862.07c-32.24 0-58.38-26.14-58.38-58.38 0-32.23 26.14-58.38 58.38-58.38h862.07c4.86 0 9.12-4.26 9.12-9.12v-1739.34c0-4.86-4.26-9.12-9.12-9.12h-847.87c-63.1 0-118.12-38.22-140.15-97.37l-123.42-331.08c-8.81-23.56-29.02-37.62-54.2-37.62l-817.48-.03c-25.15 0-45.44 14.06-54.2 37.62l-123.42 331.09c-22.05 59.15-77.07 97.37-140.14 97.37l-847.88.03c-4.86 0-9.12 4.26-9.12 9.12v1739.35c0 4.86 4.26 9.12 9.12 9.12h862.07c32.24 0 58.38 26.14 58.38 58.38 0 32.23-26.14 58.38-58.38 58.38h-862.08c-69.39 0-125.87-56.48-125.87-125.87v-1739.37c0-69.39 56.48-125.87 125.87-125.87h847.88c14.52 0 25.7-7.83 30.78-21.36l123.42-331.09c25.7-69 89.92-113.62 163.65-113.62l817.48-.03c73.64 0 137.87 44.62 163.65 113.62l123.42 331.09c5.08 13.59 16.26 21.36 30.78 21.36l847.88.03c69.39 0 125.87 56.48 125.87 125.87v1739.35c-.17 69.42-56.62 125.87-126.04 125.87z" fill-rule="evenodd" fill="#77894d" fill-opacity="1" data-original-color="#000000ff" stroke="none" stroke-opacity="1"/></g><g><path clip-rule="evenodd" d="m2330.78 1642.23c-6.4 0-12.85-1.07-19.08-3.18-119.72-41.44-245.37-62.41-373.21-62.41s-253.49 20.98-373.21 62.41c-21.36 7.39-45.09 1.76-60.82-14.36-15.82-16.2-20.81-39.98-12.93-61.18l145.03-388.94c8.51-22.79 30.31-38 54.73-38l494.63-.03c24.41 0 46.21 15.13 54.72 38l145.03 388.94c7.91 21.2 2.88 45-12.93 61.18-11.4 11.42-26.53 17.57-41.96 17.57zm-392.3-182.35c100.72 0 200.2 11.86 296.88 35.25l-90.14-241.85h-413.46l-90.14 241.85c96.67-23.39 196.09-35.25 296.86-35.25z" fill-rule="evenodd" fill="#77894d" fill-opacity="1" data-original-color="#000000ff" stroke="none" stroke-opacity="1"/></g><g><path clip-rule="evenodd" d="m1938.48 3629.39c-501.96 0-910.34-408.38-910.34-910.34s408.38-910.34 910.34-910.34 910.34 408.38 910.34 910.34-408.38 910.34-910.34 910.34zm0-1704.04c-437.57 0-793.59 356.02-793.59 793.67s356.02 793.67 793.59 793.67 793.59-356.02 793.59-793.67-355.99-793.67-793.59-793.67z" fill-rule="evenodd" fill="#77894d" fill-opacity="1" data-original-color="#000000ff" stroke="none" stroke-opacity="1"/></g><g><path clip-rule="evenodd" d="m1938.48 3316.97c-329.72 0-598.03-268.24-598.03-597.95s268.24-597.95 598.03-597.95c329.8 0 598.04 268.24 598.04 597.95s-268.29 597.95-598.04 597.95zm0-1079.23c-265.35 0-481.28 215.87-481.28 481.28s215.87 481.28 481.28 481.28 481.28-215.88 481.28-481.28-215.92-481.28-481.28-481.28z" fill-rule="evenodd" fill="#77894d" fill-opacity="1" data-original-color="#000000ff" stroke="none" stroke-opacity="1"/></g><g><path clip-rule="evenodd" d="m1710.31 2777.34c-32.24 0-58.38-26.14-58.38-58.38 0-158.02 128.53-286.55 286.55-286.55 32.24 0 58.38 26.14 58.38 58.37 0 32.24-26.14 58.38-58.38 58.38-93.63 0-169.8 76.17-169.8 169.8 0 32.21-26.14 58.38-58.37 58.38z" fill-rule="evenodd" fill="#77894d" fill-opacity="1" data-original-color="#000000ff" stroke="none" stroke-opacity="1"/></g><g><path clip-rule="evenodd" d="m821.8 1654.83h-274.64c-32.23 0-58.38-26.14-58.38-58.37 0-32.24 26.14-58.38 58.38-58.38l274.64.03c32.23 0 58.38 26.14 58.38 58.38-.01 32.23-26.09 58.34-58.38 58.34z" fill-rule="evenodd" fill="#77894d" fill-opacity="1" data-original-color="#000000ff" stroke="none" stroke-opacity="1"/></g><g><path clip-rule="evenodd" d="m3334.01 1370.59c-32.23 0-58.38-26.14-58.38-58.38v-127.76c0-38.22-31.08-69.39-69.39-69.39l-174.61-.03c-38.22 0-69.39 31.08-69.39 69.39v127.76c0 32.23-26.14 58.38-58.38 58.38-32.23 0-58.38-26.14-58.38-58.38v-127.76c0-102.61 83.53-186.14 186.14-186.14h174.61c102.61 0 186.14 83.44 186.14 186.14v127.76c.01 32.24-26.07 58.41-58.36 58.41z" fill-rule="evenodd" fill="#77894d" fill-opacity="1" data-original-color="#000000ff" stroke="none" stroke-opacity="1"/></g><g><path clip-rule="evenodd" d="m972.98 1370.59c-32.23 0-58.38-26.14-58.38-58.38v-127.76c0-38.22-31.08-69.39-69.39-69.39l-174.61-.03c-38.22 0-69.39 31.08-69.39 69.39v127.76c0 32.23-26.14 58.38-58.38 58.38s-58.38-26.14-58.38-58.38v-127.76c0-102.61 83.53-186.14 186.14-186.14h174.58c102.61 0 186.14 83.44 186.14 186.14v127.76c.04 32.24-26.12 58.41-58.33 58.41z" fill-rule="evenodd" fill="#77894d" fill-opacity="1" data-original-color="#000000ff" stroke="none" stroke-opacity="1"/></g><g><path clip-rule="evenodd" d="m3230.11 2793.07c-32.23 0-58.37-26.14-58.37-58.38v-970.61c0-32.23 26.14-58.38 58.37-58.38 32.24 0 58.38 26.14 58.38 58.38v970.61c-.01 32.22-26.09 58.38-58.38 58.38z" fill-rule="evenodd" fill="#77894d" fill-opacity="1" data-original-color="#000000ff" stroke="none" stroke-opacity="1"/></g><g><path clip-rule="evenodd" d="m1938.48 516.4c-32.23 0-58.37-26.14-58.37-58.38v-144.4c0-32.24 26.14-58.37 58.37-58.37 32.24 0 58.38 26.14 58.38 58.37v144.4c0 32.24-26.14 58.38-58.38 58.38z" fill-rule="evenodd" fill="#77894d" fill-opacity="1" data-original-color="#000000ff" stroke="none" stroke-opacity="1"/></g><g><path clip-rule="evenodd" d="m2335.72 622.88c-9.89 0-19.91-2.5-29.11-7.83-27.9-16.12-37.48-51.84-21.36-79.74l72.21-125.1c16.12-27.9 51.84-37.48 79.74-21.36s37.48 51.84 21.36 79.74l-72.21 125.1c-10.87 18.7-30.5 29.19-50.63 29.19z" fill-rule="evenodd" fill="#77894d" fill-opacity="1" data-original-color="#000000ff" stroke="none" stroke-opacity="1"/></g><g><path clip-rule="evenodd" d="m1541.19 622.88c-20.15 0-39.84-10.49-50.63-29.19l-72.21-125.1c-16.12-27.9-6.54-63.62 21.36-79.74s63.62-6.54 79.74 21.36l72.21 125.1c16.12 27.9 6.54 63.62-21.36 79.74-9.11 5.33-19.14 7.83-29.11 7.83z" fill-rule="evenodd" fill="#77894d" fill-opacity="1" data-original-color="#000000ff" stroke="none" stroke-opacity="1"/></g></g></g><g id="Master_Layer_3"/></g></svg>