<svg xmlns="http://www.w3.org/2000/svg" id="Glyph" viewBox="0 0 64 64" width="300" height="300" version="1.1" xmlns:xlink="http://www.w3.org/1999/xlink" xmlns:svgjs="http://svgjs.dev/svgjs"><g width="100%" height="100%" transform="matrix(1,0,0,1,0,0)"><title/><path d="M55.86607,13.69643H53.81214V50.80212a4.09276,4.09276,0,0,1-4.08856,4.09822,4.28057,4.28057,0,0,1-.98359-.11571,30.826,30.826,0,0,0-7.16464-.87748,24.65952,24.65952,0,0,0-7.64678,1.16675c-.41463.135-.81962.27968-1.22466.43394L32,55.78746l-.70391-.27962c-.405-.15426-.81-.29892-1.22466-.43394a24.65952,24.65952,0,0,0-7.64678-1.16675,30.89908,30.89908,0,0,0-7.16464.87748,4.28057,4.28057,0,0,1-.98359.11571,4.09891,4.09891,0,0,1-4.08856-4.09822V13.69643H8.13393A3.14,3.14,0,0,0,5,16.83036V55.88393a3.14006,3.14006,0,0,0,3.13393,3.13393H55.86607A3.14006,3.14006,0,0,0,59,55.88393V16.83036A3.14,3.14,0,0,0,55.86607,13.69643Z" fill="#77894d" fill-opacity="1" data-original-color="#000000ff" stroke="none" stroke-opacity="1"/><path d="M14.79712,52.91391a32.69324,32.69324,0,0,1,7.62753-.93533,26.74216,26.74216,0,0,1,7.64678,1.08c.31823.08675.646.19281.96428.29892V7.71785A.76936.76936,0,0,1,31.10322,7.39c-.33753-.12536-.68466-.23142-1.03179-.32782V7.05249a26.74277,26.74277,0,0,0-7.64678-1.07035,32.30136,32.30136,0,0,0-8.74608,1.22461,2.18134,2.18134,0,0,0-1.56214,2.08289V50.80212A2.19669,2.19669,0,0,0,14.79712,52.91391Zm14.11715-41.686a.95248.95248,0,0,1,.74252,1.13785.96827.96827,0,0,1-.945.77142.72218.72218,0,0,1-.19287-.0289,36.40339,36.40339,0,0,0-12.92145,0,.95977.95977,0,1,1-.38568-1.88037A37.27769,37.27769,0,0,1,28.91427,11.22786ZM17.29464,46.22177a6.54359,6.54359,0,0,1-.69425-.675,6.18415,6.18415,0,0,1-.58826-.76177A7.30008,7.30008,0,0,1,22.4825,33.40643a7.22469,7.22469,0,0,1,4.33929,1.7646,7.61265,7.61265,0,0,1,.69426.675,6.1859,6.1859,0,0,1,.58826.76183,7.29619,7.29619,0,0,1-10.80967,9.6139ZM15.21181,26.44426a37.51837,37.51837,0,0,1,13.70246,0,.96547.96547,0,0,1-.39533,1.89,36.115,36.115,0,0,0-12.92145,0,1.30606,1.30606,0,0,1-.19287.0193.96439.96439,0,0,1-.19281-1.90932Zm0-5.07215a37.51812,37.51812,0,0,1,13.70246,0,.96525.96525,0,0,1-.20246,1.90932,1.44868,1.44868,0,0,1-.19287-.0193,35.86309,35.86309,0,0,0-12.92145,0,.96448.96448,0,1,1-.38568-1.89Zm0-5.0721a37.51712,37.51712,0,0,1,13.70246,0,.95248.95248,0,0,1,.74252,1.13785.96609.96609,0,0,1-1.13785.75211,35.8649,35.8649,0,0,0-12.92145,0,1.30474,1.30474,0,0,1-.19287.01931A.96436.96436,0,0,1,15.21181,16.3Z" fill="#77894d" fill-opacity="1" data-original-color="#000000ff" stroke="none" stroke-opacity="1"/><path d="M32.96429,8.3832V53.3575c.31823-.10611.64605-.21217.96428-.29892a26.74216,26.74216,0,0,1,7.64678-1.08,32.69324,32.69324,0,0,1,7.62753.93533,2.19288,2.19288,0,0,0,2.68069-2.11179V9.28964a2.18134,2.18134,0,0,0-1.56214-2.08289,32.30136,32.30136,0,0,0-8.74608-1.22461,26.74277,26.74277,0,0,0-7.64678,1.07035v.00965c-.34713.0964-.68466.20246-1.02214.32782a.93985.93985,0,0,1,.05786.32789Zm2.13109,33.79821a37.27892,37.27892,0,0,1,13.70246,0,.9525.9525,0,0,1,.74252,1.13785.96818.96818,0,0,1-.945.77141.71968.71968,0,0,1-.19287-.02889,36.37,36.37,0,0,0-12.92145,0,.95977.95977,0,1,1-.38568-1.88037Zm0-5.08181a37.51862,37.51862,0,0,1,13.70246,0,.96694.96694,0,0,1,.74252,1.14751.95251.95251,0,0,1-1.13785.74251,36.115,36.115,0,0,0-12.92145,0,.68825.68825,0,0,1-.19287.01931.95966.95966,0,0,1-.945-.76182A.97333.97333,0,0,1,35.09538,37.0996Zm14.445-3.92459a.95963.95963,0,0,1-.945.76177,1.44862,1.44862,0,0,1-.19287-.01931,36.14782,36.14782,0,0,0-12.92145,0,.96446.96446,0,1,1-.38568-1.89,37.51687,37.51687,0,0,1,13.70246,0A.96687.96687,0,0,1,49.54036,33.175ZM47.04283,11.41108a3.63824,3.63824,0,0,1,1.244,4.98534l-2.7386,4.5514-.98353,1.64895-2.7386,4.55146a3.6279,3.6279,0,0,1-2.22749,1.65854,4.05,4.05,0,0,1-.88713.10606,3.63645,3.63645,0,0,1-3.11468-5.506l2.72894-4.55146.99324-1.64889L42.05749,12.655A3.63829,3.63829,0,0,1,47.04283,11.41108ZM35.09538,47.25356a37.51687,37.51687,0,0,1,13.70246,0,.95251.95251,0,0,1,.74252,1.13785.96614.96614,0,0,1-1.13785.75217,35.86333,35.86333,0,0,0-12.92145,0,1.4582,1.4582,0,0,1-.19287.01925.96436.96436,0,0,1-.19281-1.90927Z" fill="#77894d" fill-opacity="1" data-original-color="#000000ff" stroke="none" stroke-opacity="1"/><path d="M26.64823,37.9l-7.89751,7.02a5.36851,5.36851,0,0,0,7.89751-7.02Z" fill="#77894d" fill-opacity="1" data-original-color="#000000ff" stroke="none" stroke-opacity="1"/><path d="M22.37645,35.335c-.10612-.00965-.22183-.00965-.32789-.00965A5.30945,5.30945,0,0,0,18.49035,36.685a5.37394,5.37394,0,0,0-1.02214,6.79826l7.8975-7.02A5.23488,5.23488,0,0,0,22.37645,35.335Z" fill="#77894d" fill-opacity="1" data-original-color="#000000ff" stroke="none" stroke-opacity="1"/><path d="M46.6282,15.40317a1.70417,1.70417,0,0,0-2.92176-1.75494l-2.72894,4.5514,2.92181,1.755Z" fill="#77894d" fill-opacity="1" data-original-color="#000000ff" stroke="none" stroke-opacity="1"/><path d="M37.83392,26.74318a1.73293,1.73293,0,0,0,1.29217.19287,1.69446,1.69446,0,0,0,1.051-.78107l2.72895-4.5514-2.92176-1.755L37.25537,24.4A1.71723,1.71723,0,0,0,37.83392,26.74318Z" fill="#77894d" fill-opacity="1" data-original-color="#000000ff" stroke="none" stroke-opacity="1"/></g></svg>