<svg id="Layer_1" viewBox="0 0 1000 1000" xmlns="http://www.w3.org/2000/svg" data-name="Layer 1" width="300" height="300" version="1.1" xmlns:xlink="http://www.w3.org/1999/xlink" xmlns:svgjs="http://svgjs.dev/svgjs"><g width="100%" height="100%" transform="matrix(1,0,0,1,0,0)"><path d="m743.39 410.05c-27.94 0-54.45-5.85-74.66-16.47-23.46-12.34-36.39-29.92-36.39-49.51 0-28.49 27.23-52.16 71.06-61.77a16 16 0 0 1 6.86 31.26c-29.83 6.54-45.92 20.6-45.92 30.51 0 13.86 30.79 34 79 34s79-20.12 79-34c0-9.91-16.09-24-45.91-30.51a16 16 0 0 1 6.85-31.26c43.83 9.61 71.06 33.28 71.06 61.77 0 19.59-12.92 37.17-36.39 49.51-20.12 10.62-46.63 16.47-74.56 16.47z" fill="#77894d" fill-opacity="1" data-original-color="#000000ff" stroke="none" stroke-opacity="1"/><path d="m743.39 374.55a16 16 0 0 1 -13.39-7.29c-.81-1.25-20.11-31.06-39.75-66.23-41.25-73.85-41.25-95.4-41.25-102.48 0-47.91 42.35-86.89 94.41-86.89s94.4 39 94.4 86.89c0 7.08 0 28.63-41.23 102.48-19.64 35.17-38.94 65-39.75 66.23a16 16 0 0 1 -13.44 7.29zm0-230.89c-34.39 0-62.39 24.63-62.39 54.89 0 6.1 3.62 26.75 37.09 86.74 9.07 16.24 18.2 31.52 25.32 43.13 7.11-11.61 16.25-26.89 25.31-43.13 33.48-60 37.09-80.64 37.09-86.74-.02-30.26-28.01-54.89-62.42-54.89z" fill="#77894d" fill-opacity="1" data-original-color="#000000ff" stroke="none" stroke-opacity="1"/><path d="m743.39 259.26a50.76 50.76 0 1 1 50.75-50.76 50.82 50.82 0 0 1 -50.75 50.76zm0-69.51a18.76 18.76 0 1 0 18.75 18.75 18.78 18.78 0 0 0 -18.75-18.75z" fill="#77894d" fill-opacity="1" data-original-color="#000000ff" stroke="none" stroke-opacity="1"/><path d="m213.17 856.88a16 16 0 0 1 -11.49-4.88l-45.48-46.86a37.67 37.67 0 0 1 .83-53.29l104.44-101.2a45.07 45.07 0 0 1 63.62 1l60.24 62.08a16 16 0 0 1 -.34 22.64l-119.68 116a16 16 0 0 1 -22.27-23l108.18-104.85-49.1-50.6a13 13 0 0 0 -18.39-.28l-104.44 101.19a5.69 5.69 0 0 0 -.12 8l45.48 46.87a16 16 0 0 1 -11.48 27.15z" fill="#77894d" fill-opacity="1" data-original-color="#000000ff" stroke="none" stroke-opacity="1"/><path d="m233.73 915.72h-.73a49 49 0 0 1 -33.36-84.18 49 49 0 1 1 34.14 84.19zm-11.86-61.22a17 17 0 1 0 24 .37 17 17 0 0 0 -24-.37z" fill="#77894d" fill-opacity="1" data-original-color="#000000ff" stroke="none" stroke-opacity="1"/><path d="m333.63 699.42a16 16 0 0 1 -11.13-27.5l1.36-1.31.08-.08 74.06-70.7a16 16 0 0 1 22.1 23.17l-74 70.66-1.32 1.27a15.93 15.93 0 0 1 -11.15 4.49z" fill="#77894d" fill-opacity="1" data-original-color="#000000ff" stroke="none" stroke-opacity="1"/><path d="m373.85 740.88a16 16 0 0 1 -16-16 16 16 0 0 1 4.88-11.5l1.36-1.32 59.79-57.89a16 16 0 0 1 22.26 23l-61 59.05a16 16 0 0 1 -11.29 4.66z" fill="#77894d" fill-opacity="1" data-original-color="#000000ff" stroke="none" stroke-opacity="1"/><path d="m566 493.71a67.05 67.05 0 1 1 23.13-4.14 66.77 66.77 0 0 1 -23.13 4.14zm.05-102a35 35 0 1 0 14.71 3.29 34.94 34.94 0 0 0 -14.67-3.29z" fill="#77894d" fill-opacity="1" data-original-color="#000000ff" stroke="none" stroke-opacity="1"/><path d="m698.55 916a52.17 52.17 0 0 1 -6.22-.38 50 50 0 0 1 -33.53-19l-74.8-95.62-95.14 99.6-.25.26a50.35 50.35 0 0 1 -71.21-71.2l71.17-71.18a73.33 73.33 0 0 0 21.29-57.66l-7.47-95.51a100.17 100.17 0 0 0 -36.47 42l-6.5 14a41.34 41.34 0 0 1 -78.86-17.37 41 41 0 0 1 3.83-17.32l11.61-25.16a151.14 151.14 0 0 1 85.61-78.93 204.12 204.12 0 0 1 59.74-12.21l42.75-2.19a62.71 62.71 0 0 1 44.46 15.33 96.85 96.85 0 0 0 80.5 22.3 44.43 44.43 0 0 1 23.28 85.42l-10.62 3.9a112.9 112.9 0 0 1 -88.72-4.69l2.37 43.19a102.32 102.32 0 0 0 21.75 57.81l80.93 103.22a50.34 50.34 0 0 1 -39.5 81.4zm-113.32-155.41h.79a16 16 0 0 1 11.81 6.12l86.17 110.29a18.33 18.33 0 1 0 28.86-22.6l-80.92-103.27a134.1 134.1 0 0 1 -28.52-75.8l-4.17-76a16 16 0 0 1 27.15-12.33 81.19 81.19 0 0 0 84.32 18l10.62-3.9a12.53 12.53 0 0 0 8.15-11.71 12.33 12.33 0 0 0 -1.57-6 12.62 12.62 0 0 0 -13.26-6.16 128.84 128.84 0 0 1 -107.06-29.61 30.71 30.71 0 0 0 -21.83-7.53l-42.77 2.19a171.56 171.56 0 0 0 -50.33 10.29 119.35 119.35 0 0 0 -67.61 62.33l-11.62 25.1a9.24 9.24 0 0 0 -.88 3.9 9.34 9.34 0 0 0 17.82 3.94l6.5-14.06a131.66 131.66 0 0 1 74.12-68.27 16 16 0 0 1 21.47 13.77l9.31 119a105.29 105.29 0 0 1 -30.58 82.82l-71.2 71.18a18.35 18.35 0 0 0 25.84 26.06l107.82-112.81a16 16 0 0 1 11.57-4.94z" fill="#77894d" fill-opacity="1" data-original-color="#000000ff" stroke="none" stroke-opacity="1"/><path d="m619 684a16 16 0 0 1 -5.23-31.13 274.74 274.74 0 0 0 76.84-41.18 16 16 0 1 1 19.39 25.44 306.07 306.07 0 0 1 -85.77 46 15.9 15.9 0 0 1 -5.23.87z" fill="#77894d" fill-opacity="1" data-original-color="#000000ff" stroke="none" stroke-opacity="1"/><path d="m429.08 684.26a16 16 0 1 1 16-16 16 16 0 0 1 -16.01 16z" fill="#77894d" fill-opacity="1" data-original-color="#000000ff" stroke="none" stroke-opacity="1"/><path d="m524.59 699.93h-.94a307.78 307.78 0 0 1 -97.23-15.67 16 16 0 0 1 10.1-30.37 275.66 275.66 0 0 0 87.13 14h.94a16 16 0 0 1 0 32z" fill="#77894d" fill-opacity="1" data-original-color="#000000ff" stroke="none" stroke-opacity="1"/><path d="m375.38 659.53a16 16 0 0 1 -8.12-2.22 308.93 308.93 0 0 1 -60.82-47 307.73 307.73 0 0 1 2.87-439.43l.35-.33a308 308 0 0 1 385.88-34.1 16 16 0 1 1 -17.88 26.53 276 276 0 0 0 -346.07 30.87 3.26 3.26 0 0 1 -.33.31 276 276 0 0 0 -2.26 393.42 277.18 277.18 0 0 0 54.52 42.17 16 16 0 0 1 -8.15 29.78z" fill="#77894d" fill-opacity="1" data-original-color="#000000ff" stroke="none" stroke-opacity="1"/><path d="m744.67 598.72a16 16 0 0 1 -12.1-26.46 275.84 275.84 0 0 0 67-180.3c0-4.84-.13-9.66-.37-14.32a16 16 0 0 1 32-1.68c.27 5.22.41 10.61.41 16a307.9 307.9 0 0 1 -74.83 201.22 16 16 0 0 1 -12.11 5.54z" fill="#77894d" fill-opacity="1" data-original-color="#000000ff" stroke="none" stroke-opacity="1"/><path d="m802.41 320.9a16 16 0 0 1 -16-16 16 16 0 1 1 16 16z" fill="#77894d" fill-opacity="1" data-original-color="#000000ff" stroke="none" stroke-opacity="1"/><path d="m612.36 547.28a16 16 0 0 1 -15.93-17.66 73.5 73.5 0 0 1 7.29-24.5c13.35-27.36 44-42.59 74.59-37.05 25.32 4.59 43.1-8.32 53.56-20a29 29 0 0 0 7.58-22.82c-.94-7.47-4.69-13.26-11.83-18.23a16 16 0 0 1 18.27-26.27c14.5 10.09 23.26 24.11 25.31 40.54a61 61 0 0 1 -15.52 48.17c-13 14.49-41.13 37.68-83.08 30.07-16.54-3-33 5.06-40.12 19.58a42.09 42.09 0 0 0 -4.23 13.8 16 16 0 0 1 -15.89 14.37z" fill="#77894d" fill-opacity="1" data-original-color="#000000ff" stroke="none" stroke-opacity="1"/><path d="m650.23 350.13a16 16 0 0 1 -15.77-13.25c-2.66-13.15-10.14-21.09-22.86-24.26a128.35 128.35 0 0 1 -48.6-23.36c-25.92-20.3-37.56-39.66-35.59-59.19 1.18-11.8 8.31-28.73 35.55-42.37a120.29 120.29 0 0 1 53.52-12.39h48.9a16 16 0 0 1 0 32h-48.9a88 88 0 0 0 -39.2 9c-10.93 5.47-17.5 11.65-18 17-.27 2.7.63 12.89 23.49 30.79a96.66 96.66 0 0 0 36.6 17.51c25 6.24 41.57 23.81 46.59 49.48a16 16 0 0 1 -15.7 19.08z" fill="#77894d" fill-opacity="1" data-original-color="#000000ff" stroke="none" stroke-opacity="1"/><path d="m317.71 614.93a16 16 0 0 1 -2.89-31.74l10.71-2c7.25-1.35 14.56-2.48 21.62-3.58l1.15-.18c22.37-3.49 31-20.18 34.24-33.56a31.6 31.6 0 0 0 .73-8.65c-1.14-28.07 17-47.62 49.79-53.62a102.62 102.62 0 0 1 32.39-.49c28.43 3.89 39.75-23.41 42.55-31.87a16 16 0 0 1 30.39 10c-9.34 28.29-35.18 59.29-77.25 53.55a70.71 70.71 0 0 0 -22.29.27c-24.27 4.47-23.8 15.94-23.6 20.94a63.68 63.68 0 0 1 -1.62 17.51c-7.79 31.84-29.8 52.83-60.4 57.6l-1.16.18c-6.84 1.06-13.91 2.16-20.71 3.42l-10.71 2a16.41 16.41 0 0 1 -2.94.22z" fill="#77894d" fill-opacity="1" data-original-color="#000000ff" stroke="none" stroke-opacity="1"/><path d="m518.85 423.56a16 16 0 0 1 -13.17-6.88 49.79 49.79 0 0 0 -9.13-9.77 61.83 61.83 0 0 0 -39.64-14h-78.16a63.06 63.06 0 0 1 -57.67-36.91c-6.9-15.4-4.53-27.46-1.33-34.86 5.47-12.64 17.86-22.6 35.84-28.82a76.67 76.67 0 0 1 20.87-4c20.52-1.16 33.06-15.26 37.26-41.92 2.24-14.26-3.11-28.53-14-37.22l-.94-.73a51.06 51.06 0 0 0 -30.78-10.12h-47.54a16 16 0 1 1 0-32h47.6a83.24 83.24 0 0 1 50.1 16.6l1.62 1.27c19.78 15.86 29.57 41.59 25.56 67.17-6.57 41.75-31 66.86-67.09 68.9a45.41 45.41 0 0 0 -12.2 2.25c-8.86 3.07-15.19 7.29-16.92 11.29-.35.81-1.42 3.29 1.17 9.07a31 31 0 0 0 28.46 18h78.16a93.82 93.82 0 0 1 60.15 21.45 82.3 82.3 0 0 1 14.93 16.12 16 16 0 0 1 -13.14 25.11z" fill="#77894d" fill-opacity="1" data-original-color="#000000ff" stroke="none" stroke-opacity="1"/></g></svg>