<svg id="cancer-awareness-protest-ico" enable-background="new 0 0 300 300" height="300" viewBox="0 0 300 300" width="300" xmlns="http://www.w3.org/2000/svg" version="1.1" xmlns:xlink="http://www.w3.org/1999/xlink" xmlns:svgjs="http://svgjs.dev/svgjs"><g width="100%" height="100%" transform="matrix(1,0,0,1,0,0)"><g><path d="m225.973 216.444c3.503-3.286 5.725-7.92 5.725-13.091 0-9.926-8.074-18-18-18-6.089 0-11.459 3.056-14.718 7.696-.343-.204-.689-.389-1.04-.577 3.521-3.288 5.758-7.932 5.758-13.119 0-9.926-8.074-18-18-18s-18 8.074-18 18c0 5.197 2.247 9.849 5.781 13.138-4.475 2.396-8.214 6.066-10.673 10.667-1.054.121-2.092.317-3.108.608v-50.412h76c2.211 0 4-1.791 4-4v-108c0-2.209-1.789-4-4-4h-156c-2.209 0-4 1.791-4 4v108c0 2.209 1.791 4 4 4h72v51.856c-2.211-1.147-4.596-1.835-7.06-2.076-.012-.023-.01-.05-.022-.073-2.478-4.607-6.237-8.216-10.675-10.59 3.521-3.288 5.757-7.932 5.757-13.117 0-9.926-8.074-18-18-18s-18 8.074-18 18c0 5.186 2.237 9.831 5.758 13.118-.351.188-.698.373-1.041.577-3.259-4.639-8.629-7.695-14.717-7.695-9.926 0-18 8.074-18 18 0 5.171 2.222 9.805 5.725 13.091-8.161 4.391-13.725 13.01-13.725 22.909v18c0 2.209 1.791 4 4 4h72c1.75 0 3.194-1.138 3.738-2.701 2.397 1.962 4.019 3.177 4.086 3.226.703.514 1.531.77 2.359.77s1.656-.256 2.359-.77c.064-.047 1.555-1.166 3.771-2.97.606 1.436 2.027 2.444 3.686 2.444h72c2.211 0 4-1.791 4-4v-18c.001-9.899-5.563-18.519-13.724-22.909zm-142.275-71.091v-100h148v100h-72c0-2.209-1.789-4-4-4s-4 1.791-4 4zm130 48c5.516 0 10 4.486 10 10s-4.484 10-10 10-10-4.486-10-10 4.484-10 10-10zm-38-14c0-5.514 4.484-10 10-10s10 4.486 10 10-4.484 10-10 10-10-4.487-10-10zm-64 0c0-5.514 4.486-10 10-10s10 4.486 10 10-4.486 10-10 10-10-4.487-10-10zm-28 24c0-5.514 4.486-10 10-10s10 4.486 10 10-4.486 10-10 10-10-4.487-10-10zm28 50h-36v-14c0-9.926 8.074-18 18-18s18 8.074 18 18zm28 0h-20v-14c0-9.898-5.563-18.518-13.725-22.909 3.503-3.286 5.725-7.92 5.725-13.091 0-.924-.138-1.812-.273-2.699 3.005-2.101 6.578-3.301 10.273-3.301 5.605 0 10.79 2.614 14.171 6.945-7.993 3.07-13.74 11.277-13.74 20.925 0 8.403 9.399 19.018 17.568 26.664v1.466zm14.183.279c-10.609-8.293-23.752-22-23.752-28.41 0-7.848 5.676-14.232 12.65-14.232 3.035 0 5.984 1.252 8.301 3.525 1.555 1.527 4.051 1.525 5.605-.002 2.312-2.271 5.258-3.523 8.297-3.523 6.973 0 12.648 6.385 12.648 14.232.001 6.412-13.139 20.117-23.749 28.41zm33.817-14.279v14h-20v-1.131c8.253-7.668 17.934-18.469 17.934-27 0-9.754-5.872-18.042-14.003-21.029 3.373-4.234 8.523-6.84 14.069-6.84 3.694 0 7.267 1.2 10.273 3.3-.135.887-.273 1.775-.273 2.7 0 5.171 2.222 9.805 5.725 13.091-8.162 4.39-13.725 13.01-13.725 22.909zm44 14h-36v-14c0-9.926 8.074-18 18-18s18 8.074 18 18z" fill="#77894d" fill-opacity="1" data-original-color="#000000ff" stroke="none" stroke-opacity="1"/><path d="m47.698 169.353c2.209 0 4-1.791 4-4v-8c0-2.209-1.791-4-4-4s-4 1.791-4 4v8c0 2.209 1.791 4 4 4z" fill="#77894d" fill-opacity="1" data-original-color="#000000ff" stroke="none" stroke-opacity="1"/><path d="m47.698 177.353c-2.209 0-4 1.791-4 4v8c0 2.209 1.791 4 4 4s4-1.791 4-4v-8c0-2.209-1.791-4-4-4z" fill="#77894d" fill-opacity="1" data-original-color="#000000ff" stroke="none" stroke-opacity="1"/><path d="m39.698 169.353h-8c-2.209 0-4 1.791-4 4s1.791 4 4 4h8c2.209 0 4-1.791 4-4s-1.791-4-4-4z" fill="#77894d" fill-opacity="1" data-original-color="#000000ff" stroke="none" stroke-opacity="1"/><path d="m63.698 169.353h-8c-2.209 0-4 1.791-4 4s1.791 4 4 4h8c2.209 0 4-1.791 4-4s-1.791-4-4-4z" fill="#77894d" fill-opacity="1" data-original-color="#000000ff" stroke="none" stroke-opacity="1"/><path d="m253.698 169.353c-7.719 0-14 6.281-14 14s6.281 14 14 14 14-6.281 14-14-6.282-14-14-14zm0 20c-3.309 0-6-2.691-6-6s2.691-6 6-6 6 2.691 6 6-2.692 6-6 6z" fill="#77894d" fill-opacity="1" data-original-color="#000000ff" stroke="none" stroke-opacity="1"/><path d="m268.026 135.467c-2.362 0-4.276 1.915-4.276 4.276 0 2.362 1.914 4.277 4.276 4.277s4.276-1.915 4.276-4.277c0-2.361-1.914-4.276-4.276-4.276z" fill="#77894d" fill-opacity="1" data-original-color="#000000ff" stroke="none" stroke-opacity="1"/><path d="m56.026 112.021c2.362 0 4.276-1.915 4.276-4.277s-1.914-4.276-4.276-4.276-4.276 1.915-4.276 4.276c0 2.362 1.914 4.277 4.276 4.277z" fill="#77894d" fill-opacity="1" data-original-color="#000000ff" stroke="none" stroke-opacity="1"/><path d="m168.604 135.425c.734 1.213 2.043 1.928 3.422 1.928.277 0 .559-.029.836-.088 1.668-.357 2.922-1.729 3.133-3.42l2.508-20.211c.109-.883-.078-1.775-.531-2.541l-9.859-16.539 2.586-4.639c2.664-4.781 4.07-10.209 4.07-15.695v-.549c0-2.281-.75-4.545-2.109-6.375l-6.211-8.334c-.754-1.012-1.945-1.609-3.207-1.609h-15.055c-1.266 0-2.453.598-3.207 1.611l-6.21 8.336c-1.361 1.83-2.111 4.092-2.111 6.371 0 5.893 1.611 11.668 4.66 16.703l3.078 5.082-8.514 15.787c-.393.73-.551 1.566-.447 2.391l2.508 20.211c.213 1.717 1.506 3.104 3.203 3.434 1.707.336 3.414-.467 4.258-1.979l11.082-19.883zm-11.071-70.072c-.169.6-.282 1.251-.476 1.824l-1.152 3.416-1.164-3.111c-.249-.669-.406-1.425-.621-2.129zm-1.265 38.105c-1.422.027-2.727.809-3.418 2.053l-8.477 15.205-.844-6.799 8.992-16.678c.676-1.248.637-2.758-.098-3.971l-4.262-7.039c-2.293-3.785-3.504-8.127-3.504-12.559 0-.57.188-1.139.527-1.596l1.859-2.495c.079.224.121.478.204.698l5.098 13.662c.582 1.566 2.078 2.602 3.746 2.602h.062c1.695-.027 3.188-1.117 3.727-2.721l4.711-13.96 1.648 2.212c.34.457.527 1.023.527 1.598v.549c0 4.127-1.059 8.207-3.059 11.801l-3.707 6.652c-.695 1.246-.676 2.77.055 3.996l10.34 17.342-.922 7.41-9.711-16.035c-.727-1.197-2.023-1.928-3.422-1.928-.021.001-.045.001-.072.001z" fill="#77894d" fill-opacity="1" data-original-color="#000000ff" stroke="none" stroke-opacity="1"/></g></g></svg>