<svg enable-background="new 0 0 550 550" viewBox="0 0 550 550" xmlns="http://www.w3.org/2000/svg" width="300" height="300" version="1.1" xmlns:xlink="http://www.w3.org/1999/xlink" xmlns:svgjs="http://svgjs.dev/svgjs"><g width="100%" height="100%" transform="matrix(1,0,0,1,0,0)"><g id="_x36_64_-_Relaxation"><g><path d="m303.431 276.397c0-15.91-12.947-28.848-28.857-28.848-15.919 0-28.857 12.938-28.857 28.848 0 15.919 12.938 28.857 28.857 28.857 15.909.001 28.857-12.937 28.857-28.857z" fill="#77894d" fill-opacity="1" data-original-color="#000000ff" stroke="none" stroke-opacity="1"/><path d="m274.573 328.778c7.903 0 14.616-5.147 16.979-12.272h-33.967c2.363 7.124 9.085 12.272 16.988 12.272z" fill="#77894d" fill-opacity="1" data-original-color="#000000ff" stroke="none" stroke-opacity="1"/><path d="m339.648 468.058c-.244.009-.488 0-.722-.019l-1.331-.122c-2.016-.188-3.769-1.434-4.603-3.263-11.25-24.592-14.401-49.446-9.45-74.178v-.028c.056-.281.112-.563.169-.834 0-.009.009-.019.009-.028 1.941-9.328 5.025-18.638 9.272-27.91 1.294-2.822 4.631-4.069 7.453-2.775s4.069 4.631 2.775 7.453c-3.638 7.95-6.347 15.835-8.147 23.701l32.261 51.452c.169.272.319.553.441.844.741 1.809 1.988 3.338 3.609 4.425 1.613 1.078 3.497 1.65 5.447 1.65 3.235 0 6.16-1.519 8.025-4.163 1.734-2.475 2.231-5.485 1.397-8.353l-24.057-35.551c-.262-.394-.478-.816-.638-1.256-1.566-4.369-2.7-8.916-3.356-13.501l-3.488-24.357c-3.647-25.482-25.801-44.721-51.546-44.739-2.269 11.569-11.401 20.71-22.97 22.979v42.986c0 3.103-2.522 5.625-5.625 5.625-3.113 0-5.625-2.522-5.625-5.625v-42.986c-11.569-2.269-20.71-11.41-22.979-22.979-25.735.028-47.889 19.257-51.546 44.739l-3.488 24.357c-.656 4.594-1.791 9.132-3.356 13.501-.159.441-.375.863-.638 1.256l-24.057 35.551c-.834 2.869-.338 5.878 1.397 8.353 1.866 2.644 4.791 4.163 8.025 4.163 1.95 0 3.835-.572 5.456-1.659 1.613-1.078 2.869-2.606 3.609-4.416.122-.291.263-.572.431-.844l32.261-51.452c-1.8-7.866-4.519-15.76-8.147-23.701-1.294-2.822-.047-6.16 2.775-7.453 2.831-1.294 6.169-.047 7.453 2.775 4.228 9.235 7.303 18.516 9.244 27.807v.019c.009.028.019.047.019.075.094.281.15.581.187.881v.009c4.95 24.742 1.8 49.586-9.45 74.187-.834 1.828-2.588 3.075-4.594 3.263l-1.341.122c-.234.019-.478.028-.713.019-55.962-2.044-58.352 22.642-58.371 22.895-.188 6.169 1.866 10.997 6.291 14.701 17.616 14.766 66.893 8.513 84.388 4.856.206-.047.422-.075.638-.094 4.988-.45 10.482-1.622 16.126-3.244-6.31-2.822-12.3-5.747-17.635-8.494-7.388-3.806-16.219-3.778-23.607.084l-3.694 1.922c-2.756 1.434-6.15.366-7.585-2.391-1.444-2.756-.366-6.15 2.381-7.585l3.694-1.931c10.632-5.531 23.326-5.578 33.958-.103 7.172 3.694 17.523 8.71 28.492 13.004 10.969-4.303 21.31-9.31 28.492-13.004 10.622-5.475 23.317-5.428 33.948.103l3.694 1.931c2.756 1.434 3.825 4.828 2.391 7.585-1.444 2.756-4.838 3.825-7.594 2.391l-3.694-1.931c-7.388-3.844-16.21-3.881-23.598-.075-5.335 2.747-11.335 5.672-17.644 8.494 5.644 1.622 11.138 2.794 16.126 3.244.216.019.431.047.638.094 17.513 3.647 66.8 9.891 84.397-4.856 4.416-3.703 6.469-8.532 6.281-14.766-.009-.188-2.447-24.883-58.361-22.83z" fill="#77894d" fill-opacity="1" data-original-color="#000000ff" stroke="none" stroke-opacity="1"/><path d="m152.487 431.504c.159-.441.375-.863.638-1.256l3.235-4.781c-4.866-3.385-9.61-6.994-14.147-10.763-2.391-1.978-5.944-1.65-7.922.741-1.988 2.391-1.65 5.944.741 7.922 5.26 4.36 10.763 8.522 16.426 12.376.185-1.436.532-2.852 1.029-4.239z" fill="#77894d" fill-opacity="1" data-original-color="#000000ff" stroke="none" stroke-opacity="1"/><path d="m407.197 415.219c-4.547 3.741-9.282 7.313-14.138 10.66l2.953 4.369c.263.394.478.816.638 1.256.563 1.566.928 3.169 1.106 4.791 5.71-3.853 11.269-8.016 16.585-12.385 2.4-1.969 2.747-5.513.769-7.913-1.969-2.4-5.513-2.747-7.913-.778z" fill="#77894d" fill-opacity="1" data-original-color="#000000ff" stroke="none" stroke-opacity="1"/><path d="m429.37 394.077c-1.416 1.566-2.869 3.122-4.331 4.641-2.156 2.241-2.091 5.794.15 7.95 1.088 1.05 2.494 1.575 3.9 1.575 1.472 0 2.944-.572 4.05-1.725 1.538-1.594 3.075-3.244 4.566-4.885 2.091-2.306 1.913-5.86-.394-7.95-2.306-2.081-5.86-1.903-7.941.394z" fill="#77894d" fill-opacity="1" data-original-color="#000000ff" stroke="none" stroke-opacity="1"/><path d="m82.753 334.365c-1.191-2.869-4.481-4.228-7.35-3.038-2.869 1.2-4.228 4.491-3.028 7.36 7.05 16.951 16.257 33.001 27.348 47.711 1.106 1.463 2.794 2.241 4.5 2.241 1.181 0 2.363-.375 3.384-1.134 2.475-1.875 2.972-5.4 1.097-7.885-10.519-13.95-19.257-29.176-25.951-45.255z" fill="#77894d" fill-opacity="1" data-original-color="#000000ff" stroke="none" stroke-opacity="1"/><path d="m74.849 184.762c2.278 0 4.416-1.388 5.269-3.638 6.131-16.304 14.335-31.829 24.376-46.136 1.781-2.541 1.163-6.047-1.378-7.838-2.541-1.781-6.047-1.163-7.838 1.378-10.585 15.085-19.229 31.445-25.689 48.63-1.097 2.906.375 6.15 3.281 7.247.648.245 1.323.357 1.979.357z" fill="#77894d" fill-opacity="1" data-original-color="#000000ff" stroke="none" stroke-opacity="1"/><path d="m231.231 50.741c.384 0 .769-.047 1.153-.122 13.932-2.897 28.276-4.369 42.63-4.369 3.122 0 6.272.066 9.375.206 3.113.131 5.728-2.269 5.869-5.372s-2.269-5.728-5.372-5.869c-3.263-.141-6.591-.216-9.872-.216-15.122 0-30.236 1.547-44.917 4.603-3.047.638-4.997 3.61-4.369 6.657.553 2.654 2.896 4.482 5.503 4.482z" fill="#77894d" fill-opacity="1" data-original-color="#000000ff" stroke="none" stroke-opacity="1"/><path d="m135.892 97.703c1.294 0 2.597-.441 3.666-1.35 13.257-11.372 27.901-21.048 43.511-28.754 2.794-1.369 3.938-4.744 2.559-7.528-1.369-2.785-4.744-3.928-7.528-2.559-16.463 8.119-31.895 18.31-45.874 30.301-2.353 2.025-2.625 5.569-.609 7.932 1.116 1.292 2.691 1.958 4.275 1.958z" fill="#77894d" fill-opacity="1" data-original-color="#000000ff" stroke="none" stroke-opacity="1"/><path d="m66.852 254.403c0-7.51.403-15.094 1.2-22.52.328-3.085-1.903-5.86-4.988-6.197-3.103-.338-5.869 1.903-6.197 4.997-.844 7.828-1.266 15.807-1.266 23.72 0 10.463.741 20.973 2.203 31.248.403 2.803 2.803 4.828 5.56 4.828.272 0 .534-.019.806-.056 3.075-.441 5.213-3.281 4.772-6.357-1.387-9.759-2.09-19.735-2.09-29.663z" fill="#77894d" fill-opacity="1" data-original-color="#000000ff" stroke="none" stroke-opacity="1"/><path d="m335.804 55.26c16.66 5.081 32.673 12.282 47.58 21.385.919.563 1.931.834 2.934.834 1.894 0 3.741-.966 4.8-2.7 1.622-2.653.788-6.113-1.866-7.735-15.722-9.6-32.598-17.185-50.168-22.538-2.981-.909-6.122.769-7.022 3.741-.908 2.963.77 6.113 3.742 7.013z" fill="#77894d" fill-opacity="1" data-original-color="#000000ff" stroke="none" stroke-opacity="1"/><path d="m463.3 152.895c2.691-1.547 3.619-4.988 2.072-7.678-9.15-15.919-20.307-30.676-33.142-43.867-2.175-2.222-5.728-2.269-7.96-.103-2.222 2.166-2.269 5.728-.103 7.96 12.188 12.507 22.763 26.514 31.454 41.617 1.041 1.809 2.925 2.822 4.875 2.822.957-.001 1.913-.244 2.804-.751z" fill="#77894d" fill-opacity="1" data-original-color="#000000ff" stroke="none" stroke-opacity="1"/><path d="m486.56 195.966c-.825-3-3.928-4.753-6.919-3.928-3 .825-4.753 3.919-3.928 6.919 4.613 16.744 7.116 34.117 7.435 51.63.056 3.066 2.559 5.522 5.616 5.522h.103c3.113-.056 5.578-2.625 5.531-5.728-.338-18.451-2.972-36.761-7.838-54.415z" fill="#77894d" fill-opacity="1" data-original-color="#000000ff" stroke="none" stroke-opacity="1"/><path d="m484.375 298.298c-3.028-.713-6.057 1.163-6.769 4.181-4.013 16.969-10.172 33.404-18.32 48.846-1.444 2.747-.394 6.15 2.353 7.603.844.441 1.734.647 2.625.647 2.016 0 3.966-1.088 4.978-3 8.588-16.285 15.076-33.62 19.304-51.508.723-3.019-1.152-6.056-4.171-6.769z" fill="#77894d" fill-opacity="1" data-original-color="#000000ff" stroke="none" stroke-opacity="1"/><path d="m239.012 167.952c3.141 0 6.253-.338 9.253-1.003.056-.009.122-.028.178-.037 12.329-2.822 20.935-10.969 20.945-19.838 0-.009 0-.009 0-.019-.009-11.316-13.913-20.87-30.376-20.87-11.944 0-23.776 13.154-29.251 20.879 5.475 7.725 17.298 20.888 29.251 20.888z" fill="#77894d" fill-opacity="1" data-original-color="#000000ff" stroke="none" stroke-opacity="1"/><path d="m274.995 212.307c5.138-3.666 15.648-12.104 19.501-22.154.938-2.428 1.406-4.8 1.406-7.078 0-3.122-.338-6.225-.994-9.235-.019-.075-.038-.15-.047-.225-2.306-10.041-8.166-17.635-15.057-20.073-2.728 10.557-12.094 19.332-25.229 23.373-.3 2.025-.45 4.088-.45 6.16 0 2.278.478 4.65 1.406 7.069 3.601 9.403 13.529 17.926 19.464 22.163z" fill="#77894d" fill-opacity="1" data-original-color="#000000ff" stroke="none" stroke-opacity="1"/><path d="m275.023 81.811c-7.725 5.475-20.888 17.307-20.888 29.251 0 2.081.15 4.163.441 6.206 8.578 2.672 15.741 7.5 20.373 13.604 4.566-6.094 11.682-10.941 20.504-13.641h.009c.291-2.034.441-4.097.441-6.169-.001-11.991-13.155-23.794-20.88-29.251z" fill="#77894d" fill-opacity="1" data-original-color="#000000ff" stroke="none" stroke-opacity="1"/><path d="m281.492 142.273c10.566 2.738 19.332 12.104 23.363 25.239 2.025.291 4.088.441 6.169.441 11.991 0 23.785-13.154 29.251-20.879-5.475-7.716-17.307-20.888-29.251-20.888-3.141 0-6.253.347-9.263 1.003-.056.009-.122.028-.178.038-10.059 2.305-17.644 8.155-20.091 15.046z" fill="#77894d" fill-opacity="1" data-original-color="#000000ff" stroke="none" stroke-opacity="1"/><path d="m345.807 237.358c4.425 6.066 13.247 15.591 22.023 15.591 2.484 0 4.941-.272 7.303-.806 9.338-2.138 15.882-8.213 15.882-14.776 0-8.447-10.613-15.572-23.185-15.572-8.822 0-17.607 9.507-22.023 15.563z" fill="#77894d" fill-opacity="1" data-original-color="#000000ff" stroke="none" stroke-opacity="1"/><path d="m425.442 221.786c-2.4 0-4.791.253-7.097.759-.066.019-.141.028-.206.047-.009 0-.009 0-.019 0-9.329 2.147-15.854 8.213-15.854 14.776 0 3.666-.919 7.172-2.625 10.379 10.313 2.241 23.56 5.016 25.895 5.203 8.738-.066 17.504-9.535 21.92-15.582-4.426-6.057-13.248-15.582-22.014-15.582z" fill="#77894d" fill-opacity="1" data-original-color="#000000ff" stroke="none" stroke-opacity="1"/><path d="m381.059 208.566c0 1.378.084 2.756.253 4.116 6.253 2.081 11.569 5.569 15.272 9.947 3.647-4.388 8.953-7.894 15.385-9.985.159-1.35.244-2.71.244-4.078 0-8.822-9.507-17.607-15.573-22.023-6.056 4.426-15.581 13.248-15.581 22.023z" fill="#77894d" fill-opacity="1" data-original-color="#000000ff" stroke="none" stroke-opacity="1"/><path d="m147.771 237.368c0-8.447-10.613-15.572-23.176-15.572-8.775 0-17.588 9.507-22.023 15.572 4.425 6.066 13.247 15.582 22.023 15.582 2.475 0 4.931-.272 7.294-.806 9.347-2.138 15.882-8.214 15.882-14.776z" fill="#77894d" fill-opacity="1" data-original-color="#000000ff" stroke="none" stroke-opacity="1"/><path d="m168.978 208.566c0-8.766-9.525-17.579-15.591-22.013-6.057 4.425-15.573 13.247-15.573 22.013 0 1.378.084 2.756.253 4.116 6.253 2.081 11.569 5.569 15.272 9.947 3.647-4.378 8.944-7.885 15.385-9.985.17-1.349.254-2.709.254-4.078z" fill="#77894d" fill-opacity="1" data-original-color="#000000ff" stroke="none" stroke-opacity="1"/><path d="m175.072 222.554c-.056.009-.122.028-.178.037-9.338 2.138-15.873 8.213-15.873 14.776 0 3.666-.919 7.172-2.616 10.379 10.304 2.241 23.551 5.016 25.885 5.203 8.738-.066 17.504-9.535 21.92-15.582-4.425-6.056-13.247-15.582-22.013-15.582-2.409.001-4.809.263-7.125.769z" fill="#77894d" fill-opacity="1" data-original-color="#000000ff" stroke="none" stroke-opacity="1"/></g></g><g id="Layer_1"/></g></svg>